<svg width="92" height="92" viewBox="0 0 92 92" fill="none" xmlns="http://www.w3.org/2000/svg">
<rect opacity="0.9" width="92" height="92" rx="46" fill="#25D366"/>
<path fill-rule="evenodd" clip-rule="evenodd" d="M64.2438 27.6842C59.683 23.118 53.6175 20.6023 47.1557 20.5996C33.8405 20.5996 23.0039 31.436 22.9985 44.7547C22.9967 49.0123 24.109 53.1684 26.223 56.8318L22.7959 69.3496L35.602 65.9903C39.1306 67.9151 43.1031 68.9295 47.1459 68.9307H47.156C60.4697 68.9307 71.3076 58.0934 71.3126 44.7741C71.3153 38.3191 68.8049 32.25 64.2438 27.6842ZM47.1557 64.851H47.1474C43.5447 64.8495 40.0113 63.8813 36.9282 62.0523L36.1953 61.617L28.596 63.6105L30.6243 56.2013L30.1468 55.4417C28.1369 52.2449 27.0755 48.5499 27.0773 44.7562C27.0815 33.686 36.0888 24.6796 47.1638 24.6796C52.5267 24.6814 57.5681 26.7725 61.3588 30.5677C65.1495 34.3629 67.2359 39.4075 67.2342 44.7726C67.2294 55.8437 58.2227 64.851 47.1557 64.851ZM58.1691 49.8133C57.5657 49.511 54.598 48.0512 54.0445 47.8495C53.4917 47.6481 53.0888 47.5478 52.6868 48.1518C52.2842 48.7558 51.1277 50.1156 50.7754 50.5182C50.4231 50.9211 50.0714 50.9717 49.4677 50.6693C48.8639 50.3673 46.9192 49.7297 44.6135 47.6734C42.8193 46.0729 41.608 44.0963 41.2557 43.4922C40.904 42.8876 41.2527 42.5925 41.5205 42.2604C42.1739 41.449 42.8282 40.5983 43.0294 40.1957C43.2308 39.7928 43.1299 39.4402 42.9788 39.1382C42.8282 38.8362 41.6211 35.8652 41.1182 34.6563C40.6279 33.4798 40.1307 33.6387 39.7599 33.6202C39.4082 33.6027 39.0056 33.5991 38.6031 33.5991C38.2008 33.5991 37.5468 33.75 36.9933 34.3546C36.4402 34.9589 34.881 36.419 34.881 39.39C34.881 42.361 37.0439 45.2311 37.3456 45.634C37.6473 46.0368 41.602 52.1336 47.6568 54.7478C49.0969 55.3703 50.221 55.7413 51.0979 56.0195C52.544 56.4789 53.8594 56.4141 54.8997 56.2588C56.0595 56.0853 58.4705 54.7984 58.974 53.3886C59.4768 51.9786 59.4768 50.7702 59.3257 50.5182C59.1751 50.2665 58.7725 50.1156 58.1691 49.8133Z" fill="white"/>
</svg>
